<?xml version="1.0" encoding="utf-8"?>
<!-- Generator: Adobe Illustrator 22.0.0, SVG Export Plug-In . SVG Version: 6.00 Build 0)  -->
<svg version="1.1" id="Слой_1" xmlns="http://www.w3.org/2000/svg" xmlns:xlink="http://www.w3.org/1999/xlink" x="0px" y="0px"
	 viewBox="0 0 80.3 39.7" style="enable-background:new 0 0 80.3 39.7;" xml:space="preserve">
<style type="text/css">
	.st0{fill:#D74022;}
	.st1{fill:#4D4D4F;}
	.st2{fill:#95D600;}
</style>
<path class="st0" d="M36.3,4.6C27.5,4.9,20.4,12,20.1,20.8C20,25.6,21.9,30,25,33.1L48.7,9.5C45.6,6.3,41.2,4.4,36.3,4.6z
	 M31.8,33.1c3.1,3.1,7.5,5,12.4,4.9c8.8-0.3,15.9-7.4,16.2-16.2c0.2-4.8-1.7-9.2-4.9-12.4L31.8,33.1z"/>
<path class="st1" d="M62,39.7l-3.3-3.4l15-15l-15-15L62,3l18.3,18.3 M18.3,39.7L0,21.3L18.3,3l3.4,3.3l-15.1,15l15.1,15"/>
<path class="st2" d="M33.5,2.9V1.7c0-0.4,0.2-0.8,0.1-1.2c-0.2-0.7-1.1-0.7-1.4-0.1c-0.5,1.2-0.6,2.4-0.6,3.6
	c-1.7,0.8-4.4,0.5-6.2-0.1c1.3,1,2.9,1.7,4.7,1.9c-1.7,0.8-3.2,1.8-4.6,3.1c3.6-2.4,8.4-2,11.5,1c-0.3-1.2-0.9-2.3-1.7-3.2
	c1.9-1.3,4.2-1.9,6.5-1.6c-1.8-0.6-3.7-0.8-5.6-0.7c0.8-0.6,1.6-1.2,2.2-2c-1.6,0.9-3,1.1-4.8,1.1C33.5,3.5,33.5,3.1,33.5,2.9"/>
</svg>
